<?xml version="1.0" encoding="utf-8"?>
<!-- Generator: Adobe Illustrator 21.0.2, SVG Export Plug-In . SVG Version: 6.00 Build 0)  -->
<svg version="1.1" xmlns="http://www.w3.org/2000/svg" xmlns:xlink="http://www.w3.org/1999/xlink" x="0px" y="0px"
	 viewBox="0 0 100 100" style="enable-background:new 0 0 100 100;" xml:space="preserve">
<style type="text/css">
	.st0{fill:#E2AD6D;}
	.st1{fill:#EAB67D;}
	.st2{display:none;}
	.st3{display:inline;fill:#EAB67D;}
</style>
<g id="Layer_1">
	<polygon class="st0" points="12.3,41.9 5.9,49.5 39,57.6 47.7,46 	"/>
	<polygon class="st0" points="39,57.6 70.6,61.7 47.7,46 	"/>
	<polygon class="st0" points="70.6,61.7 47.7,46 86.9,50.1 	"/>
	<polygon class="st0" points="91.8,46.8 91.3,48.6 87.8,56.1 86.9,50.1 	"/>
	<polygon class="st0" points="18.4,52.4 11.1,56.1 14.9,57 26.8,54.6 	"/>
	<polygon class="st0" points="86.9,50.1 70.6,61.7 79.5,60.9 87.8,56.1 	"/>
	<polygon class="st0" points="70.6,61.7 71.7,65.1 78.4,65.9 79.5,60.9 	"/>
</g>
<g id="Layer_3">
	<polygon class="st1" points="25.9,42.1 47.7,46 12.3,41.9 	"/>
	<polygon class="st1" points="25.9,42.1 47.7,46 61.2,43.9 	"/>
	<polygon class="st1" points="47.7,46 61.2,43.9 88.6,46.5 86.9,50.1 	"/>
	<polygon class="st1" points="88.6,46.5 91.8,45.6 91.8,46.8 86.9,50.1 	"/>
</g>
<g id="Layer_4" class="st2">
	<polygon class="st3" points="88.6,46.5 61.2,43.9 25.9,42.1 12.3,41.9 5.9,49.5 18.2,52.5 11.1,56.1 14.9,57 26.8,54.6 26.8,54.6 
		39,57.6 70.6,61.7 71.7,65.1 78.4,65.9 79.5,60.9 87.8,56.1 91.3,48.6 91.8,46.8 91.8,45.6 	"/>
</g>
</svg>
