<?xml version="1.0" encoding="utf-8"?>
<!-- Generator: Adobe Illustrator 21.0.2, SVG Export Plug-In . SVG Version: 6.00 Build 0)  -->
<svg version="1.1" xmlns="http://www.w3.org/2000/svg" xmlns:xlink="http://www.w3.org/1999/xlink" x="0px" y="0px"
	 viewBox="0,0 100,100" style="enable-background:new 0,0 100,100;" xml:space="preserve">
<style type="text/css">
	.st0{display:none;}
	.st1{display:inline;}
	.st2{display:inline;fill:#8C8C8C;}
	.st3{display:inline;fill:#E6CDB7;}
	.st4{fill:none;stroke:#000000;stroke-miterlimit:10;}
</style>
<g id="Head" class="st0">
	<polyline class="st1" points="43,35,53,23,40,30,43,35 	"/>
	<polyline class="st1" points="43,35,36,35,40,30,43,35 	"/>
	<polyline class="st1" points="27.5,38.1,24.7,36.2,22,40,27.5,38.1 	"/>
	<polyline class="st2" points="31,36.8,32,33,27.6,31.9,24.7,36.2,27.5,38.1,31,36.8 	"/>
	<polygon class="st1" points="32,33,31,36.8,36,35 	"/>
	<polyline class="st1" points="27.6,31.9,31,27,39,27,32,33,27.6,31.9 	"/>
	<polygon class="st1" points="32,33,39,27,36,35 	"/>
	<polygon class="st1" points="40,30,36,35,39,27 	"/>
	<polygon class="st1" points="40,30,45,14,42,16,39,27 	"/>
	<polygon class="st1" points="42,16,46,12,45,14 	"/>
	<polygon class="st1" points="45,14,54,10,54,9,46,12 	"/>
	<polygon class="st1" points="54,10,56,13,57,14,57,12,54,9 	"/>
	<polygon class="st1" points="53,23.2,57,14,55.8,12.8,49.5,24.9 	"/>
	<polygon class="st3" points="40,30,45,14,49.5,24.9 	"/>
	<polygon class="st3" points="54,10,56,13,49.5,24.9 	"/>
	<polygon class="st3" points="54,10,45,14,49.5,24.9 	"/>
	<polygon class="st1" points="33.9,27,38.7,14.7,39,27 	"/>
	<polygon class="st1" points="38.7,14.7,40.6,10.9,42,16,39,27 	"/>
	<polygon class="st1" points="40.6,10.9,42,16,46,12 	"/>
	<polygon class="st1" points="40.6,10.9,44.3,8.4,46,12 	"/>
	<polygon class="st1" points="44.3,8.4,46,12,49.5,10.7,47.8,8.4 	"/>
	<polygon class="st1" points="21,49,16,47,22,40 	"/>
	<polygon class="st1" points="16,47,13,42,22,40 	"/>
	<polygon class="st1" points="22,40,26,29,18,34,13,42 	"/>
	<polygon class="st1" points="22,40,31,27,26,29 	"/>
	<polygon class="st1" points="21,49,30,48,22,40 	"/>
	<polygon class="st1" points="30,48,22,40,36,35 	"/>
	<polygon class="st1" points="36,35,30,48,47,42 	"/>
	<polygon class="st1" points="47,42,43,35,36,35 	"/>
</g>
<g id="Body" class="st0">
	<polygon class="st1" points="21,49,26,65.7,30,48 	"/>
	<polygon class="st1" points="26,65.7,30,48,47,42 	"/>
	<polygon class="st1" points="36.6,53.7,43.3,68.3,26,65.7 	"/>
	<polygon class="st1" points="36.6,53.7,47,42,55.5,41.5 	"/>
	<polygon class="st1" points="36.6,53.7,43.3,68.3,53.2,55.3 	"/>
	<polygon class="st1" points="26,65.7,43.3,68.3,37.8,78.3 	"/>
	<polygon class="st1" points="36.6,53.7,55.5,41.5,53.2,55.3 	"/>
	<polygon class="st1" points="55.5,41.5,67.8,44.1,53.2,55.3 	"/>
	<polygon class="st1" points="67.8,44.1,76,50,53.2,55.3 	"/>
	<polygon class="st1" points="53.2,55.3,57.8,66,43.3,68.3 	"/>
	<polygon class="st1" points="57.8,66,53.2,55.3,69.6,51.5 	"/>
	<polygon class="st1" points="76,50,81.4,56.8,84.8,67.8,69.6,51.5 	"/>
	<polygon class="st1" points="69.6,51.5,57.8,66,74.5,65.7 	"/>
	<polygon class="st1" points="69.6,51.5,74.5,65.7,84.8,67.8 	"/>
	<polygon class="st1" points="43.3,68.3,54.1,74.6,57.8,66 	"/>
	<polygon class="st1" points="57.8,66,68.6,72.8,74.5,65.7 	"/>
	<polygon class="st1" points="54.1,74.6,68.6,72.8,57.8,66 	"/>
	<polygon class="st1" points="37.8,78.3,54.1,74.6,43.3,68.3 	"/>
	<polygon class="st1" points="37.8,78.3,57.1,78.9,54.1,74.6 	"/>
	<polygon class="st1" points="57.1,78.9,68.6,72.8,54.1,74.6 	"/>
	<polygon class="st1" points="68.6,72.8,84.8,67.8,74.5,65.7 	"/>
	<polygon class="st1" points="57.1,78.9,70.3,80.3,68.6,72.8 	"/>
	<polygon class="st1" points="70.3,80.3,84.8,67.8,68.6,72.8 	"/>
	<polygon class="st1" points="70.3,80.3,80,81.4,84.8,67.8 	"/>
	<polygon class="st1" points="80,81.4,84.2,80.8,85.4,73.3,84.8,67.8 	"/>
	<polygon class="st1" points="85.4,73.3,86.9,75.8,86.2,79.6,84.2,80.8 	"/>
</g>
<g id="Front_Leg" class="st0">
	<polygon class="st1" points="40.9,74,37.8,78.3,44.1,78.5 	"/>
	<polygon class="st1" points="44.1,78.5,48.6,78.6,44.1,74 	"/>
	<polygon class="st1" points="40.9,74,44.1,78.5,44.1,74,42.5,73.3 	"/>
	<polygon class="st1" points="37.8,78.3,39.3,82.4,44.1,78.5 	"/>
	<polygon class="st1" points="39.3,82.4,48.6,78.6,44.1,78.5 	"/>
	<polygon class="st1" points="48.6,78.6,45.6,84.2,39.3,82.4 	"/>
	<polygon class="st1" points="39.3,82.4,35.1,85.7,45.6,84.2 	"/>
	<polygon class="st1" points="35.1,85.7,33.4,86.2,34.8,88.4 	"/>
	<polygon class="st1" points="34.8,88.4,39.7,86.2,35.1,85.7 	"/>
	<polygon class="st1" points="45.6,84.2,42.5,88.4,39.7,86.2 	"/>
	<polygon class="st1" points="34.8,88.4,42.5,88.4,39.7,86.2 	"/>
	<polygon class="st1" points="45.6,84.2,35.1,85.7,39.7,86.2 	"/>
</g>
<g id="Back_Leg" class="st0">
	<polygon class="st1" points="84.2,80.8,78.8,86.3,76.3,81 	"/>
	<polygon class="st1" points="76.3,81,73.3,87.1,78.8,86.3 	"/>
	<polygon class="st1" points="73.3,87.1,72.1,88.4,59.4,88.4 	"/>
	<polygon class="st1" points="59.4,88.4,73.3,87.1,61.4,82.8 	"/>
	<polygon class="st1" points="59.4,88.4,46.1,87.3,42.5,88.4 	"/>
	<polygon class="st1" points="59.4,88.4,61.4,82.8,53,81.4 	"/>
	<polygon class="st1" points="53,81.4,59.4,88.4,46.1,87.3 	"/>
	<polygon class="st1" points="42.5,88.4,44.9,83.5,46.1,87.3 	"/>
	<polygon class="st1" points="46.1,87.3,53,81.4,48.2,81.8,44.9,83.5 	"/>
	<polygon class="st1" points="73.3,87.1,76.3,81,63.7,79.6 	"/>
	<polygon class="st1" points="73.3,87.1,63.7,79.6,53,81.4,61.4,82.8 	"/>
	<polygon class="st1" points="53,81.4,51.3,78.7,63.7,79.6 	"/>
	<polygon class="st1" points="51.3,78.7,48.2,81.8,53,81.4 	"/>
	<polygon class="st1" points="51.3,78.7,57.2,72.9,63.7,79.6 	"/>
	<polygon class="st1" points="63.7,79.6,57.2,72.9,66.3,74 	"/>
	<polygon class="st1" points="63.7,79.6,66.3,74,76.3,81 	"/>
	<polygon class="st1" points="76.3,81,66.3,74,79.8,75.9 	"/>
	<polygon class="st1" points="84.2,80.8,79.8,75.9,76.3,81 	"/>
	<polygon class="st1" points="84.2,80.8,79.5,73.3,79.8,75.9 	"/>
	<polygon class="st1" points="79.8,75.9,79.5,73.3,74,70.3 	"/>
	<polygon class="st1" points="57.2,72.9,63.5,70.3,66.3,74 	"/>
	<polygon class="st1" points="66.3,74,74,70.3,68.2,69.7,63.5,70.3 	"/>
	<polygon class="st1" points="79.8,75.9,74,70.3,66.3,74 	"/>
</g>
<g id="Outline">
	<polygon class="st4" points="85.4,73.3,84.8,67.8,81.4,56.8,76,50,67.8,44.1,55.5,41.5,47,42,43,35,52.7,23.3,53,23.2,57,14,57,12,54,9,49.5,10.7,47.8,8.4,44.3,8.4,40.6,10.9,38.7,14.7,33.9,27,31,27,26,29,18,34,13,42,16,47,21,49,26,65.7,37.8,78.3,39.3,82.4,35.1,85.7,33.4,86.2,34.8,88.4,42.5,88.4,59.4,88.4,72.1,88.4,73.3,87.1,78.8,86.3,84.2,80.8,86.2,79.6,86.9,75.8,85.4,73.3 	"/>
</g>
</svg>
