<?xml version="1.0" encoding="utf-8"?>
<!-- Generator: Adobe Illustrator 21.0.2, SVG Export Plug-In . SVG Version: 6.00 Build 0)  -->
<svg version="1.1" xmlns="http://www.w3.org/2000/svg" xmlns:xlink="http://www.w3.org/1999/xlink" x="0px" y="0px"
	 viewBox="0 0 100 100" style="enable-background:new 0 0 100 100;" xml:space="preserve">
<style type="text/css">
	.st0{fill:#8C8C8C;}
	.st1{fill:#E6CDB7;}
	.st2{fill:none;stroke:#000000;stroke-miterlimit:10;}
	.st3{fill:#BA8974;}
	.st4{fill:#534741;}
	.st5{fill:#997667;}
	.st6{opacity:0.5;fill:#212121;}
</style>
<g id="Head">
</g>
<g id="Body">
</g>
<g id="Front_Leg">
</g>
<g id="Back_Leg">
</g>
<g id="Outline">
</g>
<g id="Layer_8">
	<polygon class="st3" points="92.1,81.8 86.5,71.2 74.5,63 59.6,59 58.3,59.2 58.7,59 42,57 33.2,61.7 27.7,57.6 16.7,57 6.7,64.9 
		4.8,80.8 7.3,85.2 15.1,88.6 16.9,87.4 17.5,88.4 36.3,88.3 61.2,88.3 67.3,89.4 90.4,88.6 95,88.4 95,84.9 	"/>
</g>
<g id="Layer_7">
	<polygon class="st4" points="95,88.4 95,84.9 92.1,81.8 90.4,88.6 	"/>
	<polygon class="st4" points="90.4,88.6 92.1,81.8 67.3,89.4 	"/>
	<polygon class="st4" points="92.1,81.8 86.5,71.2 79.7,85.6 	"/>
	<polygon class="st4" points="86.5,71.2 74.5,63 79.7,85.6 	"/>
	<polygon class="st4" points="79.7,85.6 74.5,63 67.3,89.4 	"/>
	<polygon class="st4" points="67.3,89.4 71.3,74.6 61.2,88.3 	"/>
	<polygon class="st4" points="71.3,74.6 59.6,59 74.5,63 	"/>
	<polygon class="st4" points="61.2,88.3 46.1,81.4 36.3,88.3 	"/>
	<polygon class="st4" points="36.3,88.3 29.5,79.3 17.5,88.4 	"/>
	<polygon class="st4" points="17.5,88.4 15.6,85.2 29.5,79.3 	"/>
	<polygon class="st4" points="36.3,88.3 29.5,79.3 46.1,81.4 	"/>
	<polygon class="st4" points="61.2,88.3 71.3,74.6 46.1,81.4 	"/>
	<polygon class="st4" points="59.6,59 71.3,74.6 44,70.1 	"/>
	<polygon class="st4" points="46.1,81.4 71.3,74.6 44,70.1 	"/>
	<polygon class="st4" points="46.1,81.4 44,70.1 29.5,79.3 	"/>
	<polygon class="st4" points="44,70.1 38.9,62.2 59.6,59 	"/>
	<polygon class="st4" points="44,70.1 38.9,62.2 29.5,79.3 	"/>
	<polygon class="st4" points="38.9,62.2 34.9,66.2 29.5,79.3 	"/>
	<polygon class="st5" points="15.1,88.6 29.5,79.3 19.3,79.3 	"/>
	<polygon class="st5" points="19.3,79.3 7.3,85.2 15.1,88.6 	"/>
	<polygon class="st5" points="7.3,85.2 4.8,80.8 19.3,79.3 	"/>
	<polygon class="st5" points="29.5,79.3 34.9,66.2 19.3,79.3 	"/>
	<polygon class="st5" points="19.3,79.3 12.5,71.6 6.7,64.9 4.8,80.8 	"/>
	<polygon class="st5" points="16.7,57 12.5,71.6 6.7,64.9 	"/>
	<polygon class="st5" points="12.5,71.6 28.6,71.6 19.3,79.3 	"/>
	<polygon class="st5" points="28.6,71.6 34.9,66.2 33.2,61.7 	"/>
	<polygon class="st5" points="16.7,57 27.7,57.6 12.5,71.6 	"/>
	<polygon class="st5" points="27.7,57.6 12.5,71.6 28.6,71.6 	"/>
	<polygon class="st5" points="28.6,71.6 33.2,61.7 27.7,57.6 	"/>
	<polygon class="st5" points="34.9,66.2 46.7,65.3 58.7,59 33.6,63.5 	"/>
	<polyline class="st5" points="33.2,61.7 42,57 58.7,59 33.6,63.5 33.2,61.7 	"/>
	<polygon class="st4" points="10.5,67.8 15.5,72.1 16.7,70.3 11.7,66.6 	"/>
	<polygon class="st4" points="12.5,72.1 16.7,67.8 14.6,66.8 10.5,71.2 	"/>
	<polygon class="st6" points="17.5,88.4 16.9,87.4 29.5,79.3 31.1,80.1 	"/>
	<polygon class="st6" points="31.1,80.1 35.3,66.4 34.9,66.2 29.5,79.3 	"/>
	<polygon class="st6" points="35.3,66.4 47,66.2 46.7,65.3 34.9,66.2 	"/>
	<polygon class="st6" points="47,66.2 58.7,59 46.7,65.3 	"/>
</g>
</svg>
