<?xml version="1.0" encoding="utf-8"?>
<!-- Generator: Adobe Illustrator 21.0.2, SVG Export Plug-In . SVG Version: 6.00 Build 0)  -->
<svg version="1.1" xmlns="http://www.w3.org/2000/svg" xmlns:xlink="http://www.w3.org/1999/xlink" x="0px" y="0px"
	 viewBox="0 0 100 100" style="enable-background:new 0 0 100 100;" xml:space="preserve">
<style type="text/css">
	.st0{fill:#262626;}
	.st1{fill:#C6A589;}
	.st2{opacity:0.4;}
	.st3{fill:#292B28;}
	.st4{fill:#A4E075;}
</style>
<g id="Layer_2">
	<polygon class="st0" points="57.4,45.9 49.6,41.4 42.7,45 40.3,54.8 41.9,61.2 58,61.2 59.3,53.4 	"/>
</g>
<g id="Layer_3">
	<polygon class="st1" points="58,61.2 78.2,61 59.3,53.4 	"/>
	<polygon class="st1" points="78.2,61 74.8,47.1 59.3,53.4 	"/>
	<polygon class="st1" points="59.3,53.4 65.7,37.3 74.8,47.1 	"/>
	<polygon class="st1" points="59.3,53.4 57.4,45.9 65.7,37.3 	"/>
	<polygon class="st1" points="65.7,37.3 56.4,33 57.4,45.9 	"/>
	<polygon class="st1" points="41.9,61.2 21.2,61.2 22.5,50.1 	"/>
	<polygon class="st1" points="41.9,61.2 40.3,54.8 22.5,50.1 	"/>
	<polygon class="st1" points="40.3,54.8 42.7,45 22.5,50.1 	"/>
	<polygon class="st1" points="22.5,50.1 34.5,37.3 42.7,45 	"/>
	<polygon class="st1" points="34.5,37.3 47.6,33 42.7,45 	"/>
	<polygon class="st1" points="47.6,33 49.6,41.4 42.7,45 	"/>
	<polygon class="st1" points="49.6,41.4 56.4,33 57.4,45.9 	"/>
	<polygon class="st1" points="49.6,41.4 56.4,33 47.6,33 	"/>
	<polygon class="st1" points="74.8,47.1 85.3,55.7 78.2,61 	"/>
	<polyline class="st1" points="85.3,55.7 98.2,61.2 78.2,61 	"/>
	<polygon class="st1" points="22.5,50.1 12.2,56.6 21.2,61.2 	"/>
	<polygon class="st1" points="21.2,61.2 12.2,56.6 2.5,61.2 	"/>
</g>
<g id="Layer_4">
	<g class="st2">
		<polygon class="st3" points="16.8,57.6 23.6,51.5 35.1,39.2 47.7,35.2 56.1,35.2 65.1,39.2 73.9,48.6 82.4,56.7 88.2,61.2 
			98.2,61.2 84,54.3 73.9,46.2 65.1,36.9 56.1,32.8 47.7,32.8 35.1,36.9 23.6,49.1 13.7,55.3 7.4,58.9 2.5,61.2 11.3,61.2 		"/>
	</g>
</g>
<g id="Layer_5">
	<g>
		<polygon class="st4" points="12.2,56.6 22.5,50.1 34.5,37.3 47.6,33 56.4,33 65.7,37.3 74.8,47.1 85.3,55.7 92.2,58.6 98.2,61.2 
			85.3,53.1 74.8,44.6 65.7,34.7 56.4,30.5 47.6,30.5 34.5,34.7 22.5,47.6 12.2,54.1 6,58.7 2.5,61.2 7.9,58.7 		"/>
	</g>
</g>
<g id="Layer_6">
	<polygon class="st4" points="98.2,61.2 85.3,53.1 74.8,44.6 65.7,34.7 56.4,30.5 47.6,30.5 34.5,34.7 22.5,47.6 12.2,54.1 6,58.7 
		2.5,61.2 11.3,61.2 21.2,61.2 41.9,61.2 41.9,61.2 58,61.2 58,61.2 78.2,61 88.1,61.1 88.2,61.2 	"/>
</g>
</svg>
