<?xml version="1.0" encoding="utf-8"?>
<!-- Generator: Adobe Illustrator 21.0.2, SVG Export Plug-In . SVG Version: 6.00 Build 0)  -->
<svg version="1.1" xmlns="http://www.w3.org/2000/svg" xmlns:xlink="http://www.w3.org/1999/xlink" x="0px" y="0px"
	 viewBox="0 0 100 100" style="enable-background:new 0 0 100 100;" xml:space="preserve">
<style type="text/css">
	.st0{fill:#FFFFFF;}
</style>
<g id="Layer_5">
	<polygon class="st0" points="49.2,82.8 72.7,78.2 68.3,64.9 	"/>
	<polygon class="st0" points="72.7,78.2 90.3,78.2 68.3,64.9 	"/>
	<polygon class="st0" points="89.4,78.2 97.8,73.8 95.4,59.1 68.3,64.9 	"/>
	<polygon class="st0" points="49.2,82.8 29.7,67.7 25.1,78.2 	"/>
	<polygon class="st0" points="29.7,67.7 11.4,75.2 25.1,78.2 	"/>
	<polygon class="st0" points="12.7,51.8 29.7,67.7 11.4,75.2 	"/>
	<polygon class="st0" points="49.2,82.8 68.3,64.9 50.1,41.4 29.7,67.7 	"/>
	<polygon class="st0" points="95.4,59.1 85,52.6 68.3,64.9 	"/>
	<polygon class="st0" points="85,52.6 74.5,31.2 53.1,45.3 68.3,64.9 	"/>
	<polygon class="st0" points="66.7,36.3 62.4,16.7 50.1,41.4 53.1,45.3 	"/>
	<polygon class="st0" points="62.4,16.7 36.3,29.3 50.1,41.4 	"/>
	<polygon class="st0" points="12.7,51.8 16.9,41.4 29,41.4 29.7,67.7 	"/>
	<polygon class="st0" points="29,41.4 36.3,29.3 50.1,41.4 29.7,67.7 	"/>
	<polygon class="st0" points="11.4,75.2 3.4,70.1 6.8,53.7 12.7,51.8 	"/>
</g>
<g id="Layer_2">
	<polygon class="st0" points="97.8,73.8 95.4,59.1 85,52.6 74.5,31.2 66.7,36.3 62.4,16.7 36.3,29.3 29,41.4 16.9,41.4 12.7,51.8 
		6.8,53.7 3.4,70.1 11.4,75.2 25.1,78.2 49.2,82.8 72.7,78.2 90.3,78.2 89.9,77.9 	"/>
</g>
</svg>
