<?xml version="1.0" encoding="utf-8"?>
<!-- Generator: Adobe Illustrator 21.0.2, SVG Export Plug-In . SVG Version: 6.00 Build 0)  -->
<svg version="1.1" id="Layer_1" xmlns="http://www.w3.org/2000/svg" xmlns:xlink="http://www.w3.org/1999/xlink" x="0px" y="0px"
	 viewBox="0 0 100 100" style="enable-background:new 0 0 100 100;" xml:space="preserve">
<style type="text/css">
	.st0{fill:#F4F4F4;}
	.st1{fill:#A5A5A5;}
</style>
<polygon class="st0" points="42.5,68.5 85.5,67.5 94.5,58.5 96.5,39.5 91.5,22.5 71.5,16.5 36.5,18.5 15.5,18.5 5.5,31.5 6.5,58.5 
	10.5,64.5 20.5,67.5 "/>
<polygon class="st0" points="15.5,86.5 29.5,80.5 42.5,68.5 20.5,67.5 19.5,76.5 13.5,85.5 "/>
<polygon class="st1" points="19,28 51,25 74,26 82,25 80,29 67,29 47,29 18,30 "/>
<polygon class="st1" points="18,36 36,35 51,36 61,35 60,38 45,39 32,39 18,39 "/>
<polygon class="st1" points="19,46 36,45 64,46 70,45 71,48 62,49 43,48 22,49 19,48 "/>
<polygon class="st1" points="20,55 38,56 51.9,56 66.3,55.5 67.2,58.2 54.2,59.2 32.8,59.2 20,58.2 "/>
</svg>
