<?xml version="1.0" encoding="utf-8"?>
<!-- Generator: Adobe Illustrator 21.0.2, SVG Export Plug-In . SVG Version: 6.00 Build 0)  -->
<svg version="1.1" xmlns="http://www.w3.org/2000/svg" xmlns:xlink="http://www.w3.org/1999/xlink" x="0px" y="0px"
	 viewBox="0 0 100 100" style="enable-background:new 0 0 100 100;" xml:space="preserve">
<style type="text/css">
	.st0{fill:#90D69D;}
	.st1{fill:#70C183;}
</style>
<g id="Layer_2">
	<polygon class="st0" points="7.7,37.5 3.2,41.3 5.3,48.9 9.8,54.6 21.9,63.3 30.1,63.5 44.8,66.7 67.9,66 82.6,61.9 93.1,61.4 
		53.3,51.4 24.7,42.2 	"/>
	<polygon class="st1" points="93.1,61.4 85.9,57.8 78.7,51.7 68.1,43.7 56.3,36.9 43.5,31.6 30,28.4 17.9,27.9 11.3,30.2 8.8,33.9 
		7.7,37.5 24.1,42.2 53.3,51.4 	"/>
</g>
<g id="Layer_3">
	<polygon class="st1" points="85.9,57.8 78.7,51.7 68.1,43.7 56.3,36.9 43.5,31.6 30,28.4 17.9,27.9 11.3,30.2 8.8,33.9 7.7,37.5 
		3.2,41.3 5.3,48.9 9.8,54.6 21.9,63.3 30.1,63.5 44.8,66.7 67.9,66 82.6,61.9 93.1,61.4 	"/>
</g>
</svg>
