<?xml version="1.0" encoding="utf-8"?>
<!-- Generator: Adobe Illustrator 21.0.2, SVG Export Plug-In . SVG Version: 6.00 Build 0)  -->
<svg version="1.1" xmlns="http://www.w3.org/2000/svg" xmlns:xlink="http://www.w3.org/1999/xlink" x="0px" y="0px"
	 viewBox="0 0 100 100" style="enable-background:new 0 0 100 100;" xml:space="preserve">
<style type="text/css">
	.st0{fill:#C1AB95;}
	.st1{fill:none;stroke:#000000;stroke-miterlimit:10;}
</style>
<g id="Layer_2">
	<polyline class="st0" points="6.9,63.8 24,52.4 34,71.9 6.9,63.8 	"/>
	<polyline class="st0" points="6.9,63.8 24,52.4 3,55.6 6.9,63.8 	"/>
	<polyline class="st0" points="3,55.6 8.8,41.3 24,52.4 3,55.6 	"/>
	<polyline class="st0" points="34,71.9 53.8,58.1 24,52.4 34,71.9 	"/>
	<polyline class="st0" points="51.4,69.9 34,71.9 53.8,58.1 51.4,69.9 	"/>
	<polyline class="st0" points="51.4,69.9 53.8,58.1 78.6,76 51.4,69.9 	"/>
	<polyline class="st0" points="78.6,76 94.1,47.4 96,67.8 78.6,76 	"/>
	<polyline class="st0" points="78.6,76 94.1,47.4 53.8,58.1 78.6,76 	"/>
	<polygon class="st0" points="24,52.4 30.1,37.2 8.8,41.3 	"/>
	<polygon class="st0" points="24,52.4 30.1,37.2 49.5,35.2 	"/>
	<polygon class="st0" points="24,52.4 49.5,35.2 53.8,58.1 	"/>
	<polygon class="st0" points="53.8,58.1 66.9,27 49.5,35.2 	"/>
	<polygon class="st0" points="53.8,58.1 66.9,27 94.1,47.4 	"/>
	<polyline class="st0" points="94.1,47.4 82.4,27 66.9,27 94.1,47.4 	"/>
</g>
<g id="Layer_1">
	<polygon class="st1" points="6.9,63.8 34,71.9 51.4,69.9 78.6,76 96,67.8 94.1,47.4 82.4,27 66.9,27 49.5,35.2 30.1,37.2 8.8,41.3 
		3,55.6 	"/>
</g>
</svg>
