<?xml version="1.0" encoding="utf-8"?>
<!-- Generator: Adobe Illustrator 21.0.2, SVG Export Plug-In . SVG Version: 6.00 Build 0)  -->
<svg version="1.1" xmlns="http://www.w3.org/2000/svg" xmlns:xlink="http://www.w3.org/1999/xlink" x="0px" y="0px"
	 viewBox="0 0 100 100" style="enable-background:new 0 0 100 100;" xml:space="preserve">
<style type="text/css">
	.st0{fill:#6D6D6D;}
</style>
<g id="Layer_2">
	<polygon class="st0" points="77.4,73.5 87.4,63.9 75.1,38.1 70.6,53.6 	"/>
	<polygon class="st0" points="87.4,63.9 95.8,55.8 96.1,48.5 75.1,38.1 	"/>
	<polygon class="st0" points="96.1,48.5 84.9,31.7 75.1,38.1 	"/>
	<polygon class="st0" points="77.4,73.5 70.6,53.6 18.3,46.3 13.8,66.3 31.6,72 40.8,68.3 	"/>
	<polygon class="st0" points="13.8,66.3 5.8,49.3 18.3,46.3 	"/>
	<polygon class="st0" points="5.8,49.3 18,34.4 32.2,27.6 18.3,46.3 	"/>
	<polygon class="st0" points="70.6,53.6 75.1,38.1 50.8,29 18.3,46.3 	"/>
	<polygon class="st0" points="32.2,27.6 40.9,20.9 50.8,29 18.3,46.3 	"/>
	<polygon class="st0" points="50.8,29 40.9,20.9 61.2,21.3 	"/>
	<polygon class="st0" points="75.1,38.1 74.2,24.6 84.9,31.7 	"/>
	<polygon class="st0" points="75.1,38.1 50.8,29 61.2,21.3 74.2,24.6 	"/>
</g>
<g id="Layer_3">
	<polygon class="st0" points="84.9,31.7 74.2,24.6 61.2,21.3 40.9,20.9 32.2,27.6 18,34.4 5.8,49.3 13.8,66.3 31.6,72 40.8,68.3 
		77.4,73.5 87.4,63.9 95.8,55.8 96.1,48.5 	"/>
</g>
</svg>
