<?xml version="1.0" encoding="utf-8"?>
<!-- Generator: Adobe Illustrator 21.0.2, SVG Export Plug-In . SVG Version: 6.00 Build 0)  -->
<svg version="1.1" xmlns="http://www.w3.org/2000/svg" xmlns:xlink="http://www.w3.org/1999/xlink" x="0px" y="0px"
	 viewBox="0 0 100 100" style="enable-background:new 0 0 100 100;" xml:space="preserve">
<style type="text/css">
	.st0{fill:#662626;}
	.st1{fill:#9B5656;}
	.st2{fill:none;stroke:#C69C6D;stroke-miterlimit:10;}
</style>
<g id="Layer_2">
	<polygon class="st0" points="67.7,76.2 59.4,70.3 51.8,63.7 19.9,40.1 21.1,23.9 69.6,74.3 	"/>
	<polygon class="st0" points="59.4,70.3 49.3,78.5 42.3,75.4 51.8,63.7 	"/>
	<polygon class="st1" points="21.1,23.9 37.4,23.7 59.1,56.8 65.9,64.1 71.4,72.7 69.6,74.3 	"/>
	<polygon class="st1" points="59.1,56.8 72.1,47.3 74.7,55.8 65.9,64.1 	"/>
</g>
<g id="Layer_3">
	<polygon class="st2" points="67.7,76.2 59.4,70.3 49.3,78.5 42.3,75.4 51.8,63.7 19.9,40.1 21.1,23.9 37.4,23.7 59.1,56.8 
		72.1,47.3 74.7,55.8 65.9,64.1 71.4,72.7 	"/>
</g>
</svg>
