<?xml version="1.0" encoding="utf-8"?>
<!-- Generator: Adobe Illustrator 21.0.2, SVG Export Plug-In . SVG Version: 6.00 Build 0)  -->
<svg version="1.1" xmlns="http://www.w3.org/2000/svg" xmlns:xlink="http://www.w3.org/1999/xlink" x="0px" y="0px"
	 viewBox="0 0 100 100" style="enable-background:new 0 0 100 100;" xml:space="preserve">
<style type="text/css">
	.st0{display:none;}
	.st1{display:inline;fill:#FFFFFF;}
	.st2{display:inline;fill:#A5A5A5;}
	.st3{fill:#A5A5A5;}
</style>
<g id="Trunk" class="st0">
	<polygon class="st1" points="55,87 59.3,82.7 66,87 	"/>
	<polygon class="st1" points="59.3,82.7 57.6,72.1 53,73 	"/>
	<polygon class="st1" points="37,87 42,87 53.8,78.7 	"/>
	<polygon class="st1" points="42,87 40,89 49,87 	"/>
	<polygon class="st1" points="55,87 52,88 48,88 49,87 	"/>
	<polygon class="st1" points="55,87 59.3,82.7 53,73 	"/>
	<polygon class="st1" points="55,87 42,87 53.8,78.7 	"/>
	<polygon class="st1" points="53.8,78.7 47.7,77.5 46.1,82.5 	"/>
	<polygon class="st1" points="53.8,78.7 53,73 47.7,77.5 	"/>
	<polygon class="st1" points="47.7,77.5 47.6,72.5 53,73 	"/>
	<polygon class="st1" points="57.6,72.1 58.9,68 53,73 	"/>
	<polygon class="st1" points="58.9,68 63.9,63.9 64.5,61.1 57.1,64.6 	"/>
	<polygon class="st1" points="58.9,68 57.1,64.6 53,73 	"/>
	<polygon class="st1" points="57.1,64.6 50.3,65 53,73 	"/>
	<polygon class="st1" points="47.6,72.5 53,73 50.3,65 	"/>
	<polygon class="st1" points="47.6,72.5 44.5,67.4 43.2,63.8 50.3,65 	"/>
	<polygon class="st1" points="44.5,67.4 37.3,63.4 37.6,60.6 43.2,63.8 	"/>
	<polygon class="st1" points="43.2,63.8 39.2,59.7 50.3,65 	"/>
	<polygon class="st1" points="48.8,64.3 45.4,61.3 42.5,57.6 39.2,59.7 	"/>
	<polygon class="st1" points="50.3,65 52.6,62.3 57.1,64.6 	"/>
	<polygon class="st1" points="57.1,64.6 57.1,62.2 58.3,58 54,58.7 52.6,62.3 	"/>
	<polygon class="st1" points="63.9,63.9 71.5,58.9 69.1,57.6 64.5,61.1 	"/>
	<polygon class="st1" points="50.3,65 46.7,57.6 44.8,58.9 45.8,61.7 48.8,64.3 	"/>
	<polygon class="st1" points="49.2,62.8 50.3,65 52.6,62.3 50.9,56.9 49.8,56.9 	"/>
	<polygon class="st1" points="57.1,62.2 57.1,64.6 60.8,62.8 62,59.7 60.5,59.4 	"/>
</g>
<g id="Top" class="st0">
	<polygon class="st2" points="42,66 32.8,67.4 37.3,63.4 	"/>
	<polygon class="st2" points="32.8,67.4 15.2,65 37.3,63.4 	"/>
	<polygon class="st2" points="15.2,65 2.2,57.3 8.7,52.8 	"/>
	<polygon class="st2" points="15.2,65 8.7,52.8 18.4,52.1 	"/>
	<polygon class="st2" points="15.2,65 37.3,63.4 18.4,52.1 	"/>
	<polygon class="st2" points="38.3,64.1 44,42.5 18.4,52.1 	"/>
	<polygon class="st2" points="38.9,61.7 48.8,57.6 44,42.5 	"/>
	<polygon class="st2" points="44,42.5 60.5,44.3 48.8,57.6 	"/>
	<polygon class="st2" points="48.8,57.6 58.9,60.6 60.5,44.3 	"/>
	<polygon class="st2" points="58.9,60.6 70,50.5 60.5,44.3 	"/>
	<polygon class="st2" points="58.9,60.6 71,60.6 70,50.5 	"/>
	<polygon class="st2" points="62.3,60.6 61.2,68.2 71,60.6 	"/>
	<polygon class="st2" points="61.2,68.2 87.6,61.7 71,60.6 	"/>
	<polygon class="st2" points="71,60.6 70,50.5 92,42.5 	"/>
	<polygon class="st2" points="87.6,61.7 96.2,56.8 92,42.5 71,60.6 	"/>
	<polygon class="st2" points="70,50.5 92,42.5 78.3,40 	"/>
	<polygon class="st2" points="78.3,40 86.4,39.3 89.6,35 84.4,29.3 	"/>
	<polygon class="st2" points="70,50.5 78.3,40 60.5,44.3 	"/>
	<polygon class="st2" points="84.4,29.3 77.4,28.3 78.3,40 	"/>
	<polygon class="st2" points="77.4,28.3 81.8,26.3 79.6,21.5 70,19.6 	"/>
	<polygon class="st2" points="70,19.6 77.4,28.3 59.9,34.1 	"/>
	<polygon class="st2" points="77.4,28.3 78.3,40 59.9,34.1 	"/>
	<polygon class="st2" points="78.3,40 59.9,34.1 44,42.5 60.5,44.3 	"/>
	<polygon class="st2" points="18.4,52.1 4.2,46.8 7.5,39.2 17.6,35.2 	"/>
	<polygon class="st2" points="18.4,52.1 44,42.5 20.3,31.1 17.6,35.2 	"/>
	<polygon class="st2" points="44,42.5 59.9,34.1 39.8,20.7 	"/>
	<polygon class="st2" points="20.3,31.1 44,42.5 39.8,20.7 	"/>
	<polygon class="st2" points="20.3,31.1 24.7,19.9 28.4,17.8 39.8,20.7 	"/>
	<polygon class="st2" points="59.9,34.1 70,19.6 39.8,20.7 	"/>
	<polygon class="st2" points="70,19.6 58.9,12.6 39.8,20.7 	"/>
	<polygon class="st2" points="58.9,12.6 44.8,14.4 39.8,20.7 	"/>
</g>
<g id="Layer_3">
	<polygon class="st3" points="87.6,61.7 96.2,56.8 92,42.5 78.3,40 86.4,39.3 89.6,35 84.4,29.3 77.4,28.3 81.8,26.3 79.6,21.5 
		70,19.6 58.9,12.6 44.8,14.4 39.8,20.7 28.4,17.8 24.7,19.9 20.3,31.1 17.6,35.2 7.5,39.2 4.2,46.8 18.4,52.1 8.7,52.8 2.2,57.3 
		15.2,65 32.8,67.4 42,66 44.5,67.4 47.6,72.5 47.7,77.5 46.1,82.5 46.1,82.5 37,87 42,87 40,89 49,87 48,88 52,88 55,87 66,87 
		59.3,82.7 57.6,72.1 58.9,68 61.5,65.9 61.2,68.2 	"/>
</g>
</svg>
